<?xml version="1.0" standalone="no"?>
<!DOCTYPE svg PUBLIC "-//W3C//DTD SVG 1.1//EN" "http://www.w3.org/Graphics/SVG/1.1/DTD/svg11.dtd">
<svg xmlns="http://www.w3.org/2000/svg">
<metadata>Generated by Fontastic.me</metadata>
<defs>
<font id="qantas-components" horiz-adv-x="512">
<font-face font-family="qantas-components" units-per-em="512" ascent="480" descent="-32"/>
<missing-glyph horiz-adv-x="512" />

<glyph glyph-name="pause" unicode="&#76;" d="M475 457l0-402c0-5-1-9-5-13-4-4-8-5-13-5l-146 0c-5 0-9 1-13 5-4 4-5 8-5 13l0 402c0 5 1 9 5 13 4 4 8 5 13 5l146 0c5 0 9-1 13-5 4-4 5-8 5-13z m-256 0l0-402c0-5-1-9-5-13-4-4-8-5-13-5l-146 0c-5 0-9 1-13 5-4 4-5 8-5 13l0 402c0 5 1 9 5 13 4 4 8 5 13 5l146 0c5 0 9-1 13-5 4-4 5-8 5-13z"/>
<glyph glyph-name="play" unicode="&#77;" d="M450 247l-379-211c-5-2-8-2-11-1-4 2-5 6-5 11l0 420c0 5 1 9 5 11 3 1 6 1 11-1l379-211c5-3 7-6 7-9 0-3-2-6-7-9z"/>
<glyph glyph-name="add-circle" unicode="&#97;" d="M85 256c0-94 77-171 171-171 94 0 171 77 171 171 0 94-77 171-171 171-94 0-171-77-171-171z m248-15l-60 0 0-60-30 0 0 60-61 0 0 30 61 0 0 60 30 0 0-60 60 0z"/>
<glyph glyph-name="add-circle-outline" unicode="&#98;" d="M85 256c0-94 77-171 171-171 94 0 171 77 171 171 0 94-77 171-171 171-94 0-171-77-171-171z m16 0c0 86 69 155 155 155 86 0 155-69 155-155 0-86-69-155-155-155-86 0-155 69-155 155z m139 70l0-54-54 0 0-32 54 0 0-54 32 0 0 54 54 0 0 32-54 0 0 54z"/>
<glyph glyph-name="arrow-back" unicode="&#99;" d="M427 270l0-31-284 0 73-73-22-21-109 109 11 11 98 98 22-22-71-71z"/>
<glyph glyph-name="arrow-down" unicode="&#100;" d="M228 157l0 259 28 0 0-261 67 67 20-20-100-101-10 10-91 91 20 20z"/>
<glyph glyph-name="arrow-external" unicode="&#101;" d="M85 427l27 0 0-342-27 0z m27-315l157 0 0-27-157 0z m131 52l26 0 0-79-26 0z m0 263l26 0 0-79-26 0z m-131 0l131 0 0-27-131 0z m78-159l0-27 165 0-42-33 19-18 73 64-10 9-58 59-18-19 4-5 30-30z"/>
<glyph glyph-name="arrow-right" unicode="&#102;" d="M85 270l0-31 284 0-73-73 22-21 109 109-11 11-98 98-22-22 71-71z"/>
<glyph glyph-name="arrow-up" unicode="&#103;" d="M267 359l0-259-29 0 0 261-67-67-20 20 100 100 10-10 91-90-20-20z"/>
<glyph glyph-name="calendar" unicode="&#104;" d="M213 299l43 0 0-43-43 0z m64 0l43 0 0-43-43 0z m64 0l43 0 0-43-43 0z m-192-64l43 0 0-43-43 0z m64 0l43 0 0-43-43 0z m64 0l43 0 0-43-43 0z m64 0l43 0 0-43-43 0z m-192-64l43 0 0-43-43 0z m64 0l43 0 0-43-43 0z m64 0l43 0 0-43-43 0z m107 213l0 32c0 6-5 11-11 11l-42 0c-6 0-11-5-11-11l0-32-107 0 0 32c0 6-4 11-10 11l-43 0c-6 0-11-5-11-11l0-32-42 0 0-299 320 0 0 299z m-43 21l22 0 0-42-22 0z m-170 0l21 0 0-42-21 0z m-43-85l277 0 0-213-277 0z"/>
<glyph glyph-name="check" unicode="&#105;" d="M217 185l151 151 27-27-181-181-24 24-52 51 31 30z"/>
<glyph glyph-name="check-circle" unicode="&#106;" d="M256 427c-94 0-171-77-171-171 0-94 77-171 171-171 94 0 171 77 171 171 0 94-77 171-171 171z m-36-249l-55 55 28 29 27-27 99 99 28-28z"/>
<glyph glyph-name="check-circle-outline" unicode="&#107;" d="M256 427c-94 0-171-77-171-171 0-94 77-171 171-171 94 0 171 77 171 171 0 94-77 171-171 171z m-30-242l-55 56 28 28 27-27 99 99 29-28z m30-81c-84 0-152 68-152 152 0 84 68 152 152 152 84 0 152-68 152-152 0-84-68-152-152-152z"/>
<glyph glyph-name="chevron-down" unicode="&#108;" d="M363 290l-30 30-66-68-67 68-29-30 96-98z"/>
<glyph glyph-name="chevron-left" unicode="&#109;" d="M301 160l30 29-68 67 68 67-30 29-98-96z"/>
<glyph glyph-name="chevron-right" unicode="&#110;" d="M233 352l-30-29 67-67-67-67 30-29 98 96z"/>
<glyph glyph-name="chevron-up" unicode="&#111;" d="M363 222l-30-30-66 68-67-68-29 30 96 98z"/>
<glyph glyph-name="close" unicode="&#112;" d="M224 256l-132-132c-9-9-9-23 0-32 9-9 23-9 32 0l132 132 132-132c9-9 23-9 32 0 9 9 9 23 0 32l-132 132 132 132c9 9 9 23 0 32-9 9-23 9-32 0l-132-132-132 132c-9 9-23 9-32 0-9-9-9-23 0-32z"/>
<glyph glyph-name="close-circle" unicode="&#113;" d="M256 427c-94 0-171-77-171-171 0-94 77-171 171-171 94 0 171 77 171 171 0 94-77 171-171 171z m68-220l-19-19-49 49-49-49-19 19 49 49-49 49 19 19 49-49 49 49 19-19-49-49z"/>
<glyph glyph-name="close-circle-outline" unicode="&#114;" d="M256 427c-94 0-171-77-171-171 0-94 77-171 171-171 94 0 171 77 171 171 0 94-77 171-171 171z m0-323c-84 0-152 68-152 152 0 84 68 152 152 152 84 0 152-68 152-152 0-84-68-152-152-152z m-24 180l-56 0 0-49 160 0 0 49z"/>
<glyph glyph-name="control" unicode="&#115;" d="M156 277l27 24 51-57 205 179 23-27-230-200z m223 0l0-163-282 0 0 280 255 0 32 33-320 0 0-342 344 0 0 218z"/>
<glyph glyph-name="dollar" unicode="&#116;" d="M256 350c-36 0-69 11-86 26l0-2c0-25 38-45 86-45 48 0 86 20 86 45l0 2c-17-15-50-26-86-26m1 98c-48 0-86-20-86-45 0-25 38-46 86-46 48 0 87 20 87 46-1 25-40 45-87 45z m35-72l-70 0 0 6c2 1 3 1 4 1 3 1 6 2 8 4 2 1 3 2 4 3 1 2 1 3 1 4l0 4-15 0 0 8 12 0c-1 2-1 4-1 7 0 1 0 2 1 3 1 4 4 6 9 9 1 1 3 1 4 2 6 2 13 2 21 2 2 0 5 0 7 0 1 0 3 0 4 0 1 0 1 0 1-1 2 0 3 0 4 0 1 0 1 0 1 0l-3-8 0-2c-3 1-6 2-10 2l-7 0c0 0 0 0-1 0-1 0-3 0-4-1-1 0-2-1-3-1-2-2-3-4-3-6 0-2 0-4 2-6l22 0 0-8-20 0c0-2 0-4-1-6-1-1-1-2-3-2 0-1 0-1 0-1-1-1-3-2-5-3l41 0z m-163-295c-36 0-68 10-86 26l0-3c0-24 38-45 86-45 48 0 87 20 87 45l0 3c-18-16-50-26-87-26m0 29c-36 0-68 11-86 26l0-2c0-25 38-45 86-45 48 0 87 20 87 45l0 2c-18-15-50-26-87-26m0 29c-36 0-68 11-86 26l0-2c0-25 38-46 86-46 48 0 87 20 87 46l0 2c-18-15-50-26-87-26m0 30c-36 0-68 10-86 25l0-2c0-25 38-45 86-45 48 0 87 20 87 45l0 2c-18-15-50-25-87-25m0 28c-37 0-68 11-86 26l0-2c0-25 38-45 86-45 48 0 87 20 87 45l0 2c-18-15-50-26-87-26m1 99c-47 0-86-21-86-46 0-25 39-45 86-45 48 0 87 20 87 45-1 25-39 46-87 46z m30-74c-2 0-4-1-5-1l-3 0c-5 0-9 0-14 0l-3 0c-7 0-14 0-20 2l-1 0c-6 2-11 3-15 6-1 0-2 0-2 1-2 1-2 2-4 2-2 3-5 6-6 10l-11 0 0 6 10 0 0 4-10 0 0 6 12 0c2 6 5 10 11 13 4 2 8 4 12 5 2 1 3 1 5 1 7 2 14 3 22 3 5 0 10-1 14-1 5 0 9-1 12-2l-2-4-3-6c-1 0-2 0-2 0-2 1-4 1-6 1-3 1-6 1-9 1l-2 0c-3 0-7 0-11-1-1 0-1 0-2 0-1-1-3-2-4-2-2 0-3-1-4-2 0 0-1 0-1-1l0 0c-2-1-3-3-4-5l43 0 0-6-45 0c0-1-1-2 0-3l0-2 45 0 0-6-43 0c1-2 2-3 4-5 0 0 1-1 2-1 3-2 6-3 9-4l2 0c3 0 7-1 11-1l0 0c4 0 8 1 11 1 1 0 3 1 3 1 2 0 4 0 5 1l4-10c-2 0-3 0-5-1z m118-44c-6-1-14-1-21-1-9 0-20 1-26 2l0-21c7-2 17-2 26-2 7 0 15 0 21 1z m0 29c-6-1-14-1-21-1-9 0-20 0-26 2l0-22c7-1 17-2 26-2 7 0 15 1 21 2z m0 29c-6-1-14-1-21-1-9 0-20 1-26 2l0-21c7-2 17-2 26-2 7 0 15 0 21 1z m0 29c-6-1-14-1-22-1-10 0-21 0-30 2 3-5 5-10 5-15l0-6c7-2 17-2 26-2 7 0 15 0 21 1z m0 8c0 8 4 15 9 22-9-1-20-3-31-3-36 0-69 11-86 26l0-2c0-7 3-14 9-20 16-5 29-12 38-20 11-3 25-5 39-5 8 0 16 0 22 2z m45 44c12 8 19 18 19 28l0 2c-17-15-50-25-86-25-37 0-69 10-87 25l0-2c0-25 39-45 87-45 16 0 31 2 45 7 7 3 14 7 22 10m55-216c-37 0-69 10-86 26l0-3c0-25 38-45 86-45 48 0 87 20 87 45l0 3c-19-16-50-26-87-26m0 30c-37 0-69 10-86 25l0-2c0-25 38-46 86-46 48 0 87 20 87 46l0 2c-19-15-50-25-87-25m0 30c-37 0-69 10-86 25l0-2c0-25 38-46 86-46 48 0 87 20 87 46l0 2c-19-15-50-25-87-25m0 29c-37 0-69 11-86 26l0-3c0-25 38-45 86-45 48 0 87 20 87 45l0 3c-19-15-50-26-87-26m0 30c-37 0-69 10-86 26 0-1-1-2-1-3 0-25 39-45 87-45 48 0 86 20 86 45l0 3c-18-16-49-26-86-26m1 98c-47 0-86-20-86-45 0-25 39-46 86-46 48 0 87 20 87 46 0 25-39 45-87 45z m29-63c-5-2-10-4-19-5l0-8-3 0-16 0 0 7c0 0 0 0 0 0-2 0-10 1-14 2l-1 0c-4 0-8 1-11 2l5 9c3 0 7-2 11-2 5-1 9-1 14-1 2 0 3 0 5 0 2 0 4 1 6 1 0 0 1 0 1 0 2 1 4 2 4 4l0 0c0 1 0 2-1 2-1 1-2 1-3 2-3 1-5 1-9 2l-1 0c-1 1-2 1-4 1-1 0-2 0-3 1-5 1-9 2-13 3-1 1-3 1-3 2-3 1-4 2-5 3-2 2-3 4-3 6 0 2 2 4 4 6 1 2 2 3 4 4 5 2 11 3 19 4 1 0 2 0 2 1l0 4 14 0 0-4c10 0 9 0 13-1 3 0 6-1 9-1l-2-3-3-7c-1 1-2 1-3 1-1 0-3 1-6 1-3 1-8 1-14 1-5 0-9 0-11-1-2-1-3-2-3-3 0-2 2-3 5-4 3-1 8-2 14-3 2 0 2-1 4-1 3-1 7-1 9-2 3-1 5-2 7-3 1-1 3-2 3-3 2-1 3-3 3-4 1-1 1-2 1-2 0-2-1-4-2-6 0-2-2-4-4-5z"/>
<glyph glyph-name="fees" unicode="&#117;" d="M326 341c4 6 6 14 6 21 0 17-11 32-27 38l22 56c1 4 1 7-1 9-2 3-4 4-8 4l-112 0c-3 0-6-1-8-4-2-2-2-5-1-9l23-56c-16-6-28-21-28-38 0-8 3-15 6-22-55-37-91-107-91-175 0-31 0-121 155-121 39 0 155 0 155 121 1 69-36 139-91 176z m-22 110l-19-49-46 0-19 49z m-71-67l58 0c13 0 22-10 22-22 0-11-10-21-22-21l-58 0c-12 0-22 10-22 21 0 12 10 22 22 22z m29-321c-95 0-137 32-137 103 0 64 35 129 86 162 6-4 14-6 21-6l58 0c8 0 15 2 21 6 1-1 1-1 2-1 51-34 85-99 85-162 1-71-42-102-136-102z m-9 78c-11 2-23 6-32 15l14 16c7-5 17-12 28-12 9 0 14 3 14 10 0 7-7 10-14 12 0 0-15 6-16 6-12 6-21 16-21 30 0 15 10 27 26 31l0 12 21 0 0-11c10-2 20-6 27-12l-14-16c-8 5-15 9-22 9-8 0-12-4-12-9 0-6 5-9 13-12l14-6c15-6 23-16 23-30 0-18-13-29-29-32l0-12-21 0 0 11z"/>
<glyph glyph-name="global-access" unicode="&#118;" d="M315 419c-77 41-172 11-212-66-40-78-10-174 66-214 76-41 171-11 211 66 40 77 11 173-65 214m-195-75c7 12 15 22 24 32 1 0 3 1 5 2 7 4 11 12 16 11 10-3 6-5 5-12-2-7-3-11-2-18 2-6 5-4-1-13-5-8-11-18-10-27 2-9 4-16 5-22 1-6 2-18 4-19 1-2-1 18 1 15 2-3 10-17 9-22-1-4 10-18 14-18 4-1 12-4 16-10 4-5 10-15 18-15 7 1 3-11-2-12-5-2-5-11-3-17 2-6 6-20 11-22 6-3 9-10 6-15-3-5-6-15-7-21-17 2-34 7-51 16-67 35-93 119-58 187m128-204c1 1 3 2 4 2 7 1 17 12 25 16 7 4 9 1 13 5 5 4 5 12 9 15 4 3 17 12 6 17-11 5-17 10-20 17-3 7-11 3-14 7-4 5-11 8-18 12-7 3-14 3-17 1-4-2-7 0-10 2-3 2-11-3-8 8 4 10-9 4-8 9 2 5-1 11-7 10-6-1-9-5-10 2 0 6 1 22 7 22 5 1 27 2 28-5 1-6 1-3 2-8 1-5 7-3 6 3-1 8-3 12 6 15 9 2 7 8 11 12 5 5 9 11 18 11 8 0 14 0 12 7 0 7-6 13 0 11 7-2 25-1 21 6-4 7-10 10-8 17 2 6-4 2-7 1-4-2-1 12-7 14-6 2-11-8-11-14 1-5-5-6-7-5-2 1 2-6-4-9-4-3-8 8-5 11 4 3-6 8-10 8-4 1-6 18 4 18 10 0 15-1 18 5 3 6 9 1 11 7 2 7 0 1-7 3-8 1-13-1-13 4 0 4 0 8-7 3-8-4-10-8-12-3-2 5 1 5-9 6-10 2-7 5-17 7-5 0-11 0-16 0 27 10 57 11 86 2 1-6 3-11 8-11 4 0 9 1 12 2 1-1 1-1 2-1 0 0 1-1 1-1-1-7 14-10 12-26-3-16 1-21 3-25 3-5 9-4 12 3 3 8 14-2 17 5 0 1 1 2 1 4 10-13 17-28 22-43-1 1-1 2-1 3-2-8-2-16-3-24-1-9-5-4-5-14 0-9-1-24 5-17 5 6-1 14 7 10 0 0 1 0 1 0 1-5 0-11 0-18-4 6-13 5-18-3-5-10-24-43-9-45 15-2 9 8 14 6-1-1-1-2-2-3-22-45-67-72-114-74m-63-96l0 13 51 0 0 23-2 0c-18 1-36 3-54 9l10 27 14-5-4-11 2 0c13-3 26-4 39-4 100 0 182 82 182 184 0 40-12 78-35 110-19 25-44 45-72 58l-2 1-5-12-15 5 10 27c81-27 134-103 134-189 0-105-82-193-185-200l-4 0 0-23 61 0 0-13-125 0z"/>
<glyph glyph-name="info" unicode="&#119;" d="M256 427c-94 0-171-77-171-171 0-94 77-171 171-171 94 0 171 77 171 171 0 94-77 171-171 171z m0-313c-79 0-142 63-142 142 0 79 63 142 142 142 79 0 142-63 142-142 0-79-63-142-142-142z m39 102c-4 0-21-23-30-23-2 0-4 2-4 4 0 4 4 11 6 15l21 53c11 27-3 34-16 34-17 0-33-8-45-19-4-3-14-17-14-22 0-2 2-4 4-4 6 0 17 27 28 27 2 0 5-3 3-8l-21-47c-2-5-13-21-13-34 0-10 8-21 19-21 30 0 66 33 66 41 0 3-2 4-4 4z m-16 125c-12 0-23-10-23-23 0-12 8-19 19-19 13 0 24 9 24 23 0 12-9 19-20 19z"/>
<glyph glyph-name="mail" unicode="&#120;" d="M261 220l156 143-322 0z m-47 19l47-38 37 38 119-104-322 0z m-129-94l0 208 120-104z m342 0l0 208-120-104z"/>
<glyph glyph-name="minus" unicode="&#121;" d="M149 277l214 0 0-42-214 0z"/>
<glyph glyph-name="plus" unicode="&#122;" d="M235 277l-86 0 0-42 86 0 0-86 42 0 0 86 86 0 0 42-86 0 0 86-42 0z"/>
<glyph glyph-name="profile" unicode="&#65;" d="M256 256c47 0 85 38 85 85 0 47-38 86-85 86-47 0-85-39-85-86 0-47 38-85 85-85z m0-43c-57 0-171-28-171-85l0-43 342 0 0 43c0 57-114 85-171 85z"/>
<glyph glyph-name="qantas-points" unicode="&#66;" d="M327 107c7 13 11 30 11 51l0 218c0 58-36 90-86 93l0-39c28-3 41-25 41-51l0-222c0-26-13-48-41-51l0-41c16 1 30 4 42 10l32-32 32 32z m-91-42l0 41c-28 3-41 25-41 51l0 222c0 26 13 48 41 51l0 39c-50-3-87-35-87-93l0-218c0-60 35-90 87-93z"/>
<glyph glyph-name="refresh" unicode="&#67;" d="M256 427c-94 0-170-77-170-171 0-94 76-171 170-171 80 0 146 55 165 128l-44 0c-18-49-65-85-121-85-71 0-128 57-128 128 0 71 57 128 128 128 35 0 67-15 90-38l-69-69 150 0 0 150-50-50c-31 30-74 50-121 50z"/>
<glyph glyph-name="remove-circle" unicode="&#68;" d="M256 427c-94 0-171-77-171-171 0-94 77-171 171-171 94 0 171 77 171 171 0 94-77 171-171 171z m80-192l-160 0 0 45 160 0z"/>
<glyph glyph-name="safety" unicode="&#69;" d="M256 469l-12 0c-58 0-108-52-108-111l0-47 29 0 0 47c0 43 36 79 79 79l12 0c43 0 70-37 70-79l0-47 29 0 0 47c0 58-41 111-99 111m-171-425l321 0 0 245-321 0z m291 25l-262 0 0 195 262 0z m-91 40l-74 0 13 47c-8 7-13 19-13 30 0 21 17 38 38 38 22 0 39-18 39-39 0-12-6-23-15-31z m-55 14l36 0-10 38 5 3c8 4 12 12 12 21 0 14-10 24-24 24-13 0-24-10-24-23 0-9 5-17 11-21l5-3z"/>
<glyph glyph-name="star" unicode="&#70;" d="M427 304l-118 17-53 106-53-106-118-17 86-83-20-117 105 55 105-55-20 117 86 83"/>
<glyph glyph-name="switch" unicode="&#71;" d="M334 427l-21-22 71-69-71-70 21-21 93 91z m-105-76l164 0 0-31-164 0z m-51-91l21-21-71-70 71-70-21-21-93 91z m105-76l-160 0 0-30 160 0z"/>
<glyph glyph-name="switch-vertical" unicode="&#72;" d="M167 396l-21-21-52-54 21-22 38 39 0-214 29 0 0 214 38-39 21 22-53 54z m162 0l0-213-38 38-21-21 52-54 21-22 21 22 53 54-21 21-38-38 0 213z"/>
<glyph glyph-name="warning" unicode="&#73;" d="M259 404c-2 2-4 2-6 0-1-1-166-284-168-288l-18 11 19 9 4-9-4-9c0-1-1-2-1-4 0-4 3-7 5-7l-3-21 0 21 334 0c3 0 6 3 6 7 0 2-1 3-1 4l19 9-18-11-170 291 18 11z m186-277c2-4 3-8 3-13 0-16-12-29-27-29l-334 1c-13 2-23 14-23 28 0 5 1 9 3 13 1 2 167 288 170 291 10 11 28 11 38 0z m-173 77l5 102-43 0 5-102z m-17-57c12 0 23 10 23 22 0 12-11 22-23 22-12 0-21-10-21-22 0-12 9-22 21-22z"/>
<glyph glyph-name="warning-default" unicode="&#74;" d="M259 404c-2 2-4 2-6 0-1-1-166-284-168-288l-18 11 19 9 4-9-4-9c0-1-1-2-1-4 0-4 3-7 5-7l-3-21 0 21 334 0c3 0 6 3 6 7 0 2-1 3-1 4l19 9-18-11-170 291 18 11z m186-277c2-4 3-8 3-13 0-16-12-29-27-29l-334 1c-13 2-23 14-23 28 0 5 1 9 3 13 1 2 167 288 170 291 10 11 28 11 38 0z m-200 272c6 10 16 9 22 0l181-292-384 0z m27-195l5 102-43 0 5-102z m-17-57c12 0 23 10 23 22 0 12-11 22-23 22-12 0-21-10-21-22 0-12 9-22 21-22z"/>
<glyph glyph-name="call" unicode="&#75;" d="M293 183c0 0 29 17 36 21 8 4 16 5 20 2 8-5 68-45 73-48 5-4 7-14 0-24-7-10-39-49-52-49-14 1-70 2-177 108-106 107-107 163-108 177 0 14 39 45 49 52 10 7 20 5 24 0 4-6 43-66 48-72 3-5 1-13-2-21-4-7-21-36-21-36 0 0 12-20 51-59 39-39 59-51 59-51z"/>
<glyph glyph-name="application" unicode="&#78;" d="M79 39l354 0 0 434-354 0z m-40 473l434 0 0-512-434 0z m237-79l118 0 0-39-118 0z m0-79l118 0 0-39-118 0z m-158-78l276 0 0-40-276 0z m118 98c0-32-26-59-59-59-32 0-59 27-59 59 0 33 27 59 59 59 33 0 59-26 59-59z m-118-177l276 0 0-39-276 0z m0-79l276 0 0-39-276 0z"/>
<glyph glyph-name="menu" unicode="&#79;" d="M0 431l512 0 0-70-512 0z m0-140l512 0 0-70-512 0z m0-140l512 0 0-70-512 0z"/>
<glyph glyph-name="exit-to-app" unicode="&#80;" d="M202 154l40-40 142 142-142 142-40-40 73-74-275 0 0-56 275 0z m253 358l-398 0c-32 0-57-26-57-57l0-114 57 0 0 114 398 0 0-398-398 0 0 114-57 0 0-114c0-31 25-57 57-57l398 0c31 0 57 26 57 57l0 398c0 31-26 57-57 57z"/>
<glyph glyph-name="credit-card" unicode="&#81;" d="M427 427l-342 0c-23 0-42-19-42-43l0-256c0-24 19-43 42-43l342 0c23 0 42 19 42 43l0 256c0 24-19 43-42 43z m0-299l-342 0 0 128 342 0z m0 213l-342 0 0 43 342 0z"/>
<glyph glyph-name="statements" unicode="&#82;" d="M299 469l-171 0c-23 0-42-19-42-42l-1-342c0-23 19-42 43-42l256 0c23 0 43 19 43 42l0 256z m42-341l-170 0 0 43 170 0z m0 85l-170 0 0 43 170 0z m-64 86l0 128 128-128z"/>
</font>
</defs>
</svg>
