<?xml version="1.0" encoding="UTF-8" standalone="no"?>
<svg width="16px" height="16px" viewBox="0 0 16 16" version="1.1" xmlns="http://www.w3.org/2000/svg" xmlns:xlink="http://www.w3.org/1999/xlink">
    <!-- Generator: Sketch 40.3 (33839) - http://www.bohemiancoding.com/sketch -->
    <title>Imported Layers</title>
    <desc>Created with Sketch.</desc>
    <defs></defs>
    <g id="Forms" stroke="none" stroke-width="1" fill="none" fill-rule="evenodd">
        <g id="Desktop---Forms" transform="translate(-969.000000, -184.000000)" fill="#323232">
            <g id="TEXT-FIELD-WITH-HELP" transform="translate(515.000000, 134.000000)">
                <g id="TEXT-FIELD-HELP-Copy-3" transform="translate(0.000000, 50.000000)">
                    <path d="M462,0 C457.581667,0 454,3.582 454,8 C454,12.4186667 457.581667,16 462,16 C466.418,16 470,12.4186667 470,8 C470,3.582 466.418,0 462,0 L462,0 Z M462,14.6666667 C458.318193,14.6666667 455.333333,11.6821277 455.333333,8.00032044 C455.333333,4.31851318 458.318193,1.33333333 462,1.33333333 C465.681807,1.33333333 468.666667,4.31851318 468.666667,8.00032044 C468.666667,11.6821277 465.681807,14.6666667 462,14.6666667 L462,14.6666667 Z M463.830361,9.85975806 C463.631709,9.85975806 462.85212,10.9427256 462.42717,10.9427256 C462.313849,10.9427256 462.257531,10.853763 462.257531,10.7644792 C462.257531,10.5608607 462.413175,10.2419441 462.498165,10.0508511 L463.518389,7.56696285 C464.028671,6.33112087 463.376739,6 462.767472,6 C461.945558,6 461.208636,6.36933947 460.642034,6.85333476 C460.457377,7.01937694 460,7.66202762 460,7.90579167 C460,7.98704635 460.086355,8.08211112 460.187388,8.08211112 C460.446454,8.08211112 460.953324,6.84080934 461.4776,6.84080934 C461.591262,6.84080934 461.718918,6.95578632 461.619592,7.18445563 L460.627699,9.42682796 C460.528373,9.64361417 460.046762,10.3864683 460.046762,10.997966 C460.046762,11.4819612 460.400717,12 460.910999,12 C462.342521,12 464,10.4205117 464,10.0508511 C464,9.93619527 463.901015,9.85975806 463.830361,9.85975806 L463.830361,9.85975806 Z M463.086124,4 C462.503349,4 462,4.48620102 462,5.08074957 C462,5.6350937 462.357895,6 462.900797,6 C463.496651,6 464,5.5407155 464,4.91925043 C464,4.36456559 463.615949,4 463.086124,4 L463.086124,4 Z" id="Imported-Layers"></path>
                </g>
            </g>
        </g>
    </g>
</svg>