<?xml version="1.0" encoding="UTF-8" standalone="no"?>
<svg width="64px" height="25px" viewBox="0 0 64 25" version="1.1" xmlns="http://www.w3.org/2000/svg" xmlns:xlink="http://www.w3.org/1999/xlink">
    <!-- Generator: Sketch 3.8.2 (29753) - http://www.bohemiancoding.com/sketch -->
    <title>Icon-TM-with-no-border</title>
    <desc>Created with Sketch.</desc>
    <defs>
        <polyline id="path-1" points="0.00941265631 0.000156862745 63.6488526 0.000156862745 63.6488526 24 0.00941265631 24"></polyline>
    </defs>
    <g id="Admin" stroke="none" stroke-width="1" fill="none" fill-rule="evenodd">
        <g id="ADMIN" transform="translate(-571.000000, -4560.000000)">
            <g id="Footer" transform="translate(0.000000, 4404.000000)">
                <g id="social-and-other-links" transform="translate(0.000000, 76.000000)">
                    <g id="logo_jetstar-+-Icon-TM-with-no-border" transform="translate(571.000000, 80.000000)">
                        <g id="Icon-TM-with-no-border">
                            <g id="Group-3">
                                <mask id="mask-2" fill="white">
                                    <use xlink:href="#path-1"></use>
                                </mask>
                                <g id="Clip-2"></g>
                                <path d="M10.8010231,24 C4.83434028,24 0,18.6272941 0,11.9976471 C0,5.37552941 4.83434028,0.000156862745 10.8010231,0.000156862745 L20.8887238,0.000156862745 C26.8486609,0.000156862745 31.6856681,5.37552941 31.6856681,11.9976471 C31.6856681,18.6272941 26.8486609,24 20.8887238,24 L10.8010231,24" id="Fill-1" fill="#B9DDEB" mask="url(#mask-2)"></path>
                            </g>
                            <path d="M42.486848,24 C36.5179689,24 31.683158,18.6272941 31.683158,11.9976471 C31.683158,5.37552941 36.5179689,0.000156862745 42.486848,0.000156862745 L52.4040227,0.000156862745 C58.366313,0.000156862745 63.2025358,5.37552941 63.2025358,11.9976471 C63.2025358,18.6272941 58.366313,24 52.4040227,24 L42.486848,24" id="Fill-4" fill="#B9DDEB"></path>
                            <path d="M38.6549557,11.4426667 C38.6549557,15.2451765 35.5694869,18.329098 31.7670875,18.329098 C27.9629625,18.329098 24.8782781,15.2451765 24.8782781,11.4426667 C24.8782781,7.63780392 27.9629625,4.55435294 31.7670875,4.55435294 C35.5694869,4.55435294 38.6549557,7.63780392 38.6549557,11.4426667" id="Fill-5" fill="#FFFFFF"></path>
                            <path id="Fill-6" fill="#FFFFFF"></path>
                            <polyline id="Fill-7" fill="#004772" points="36.0195688 11.4461176 30.4119788 17.052549 30.4119788 5.83262745 36.0195688 11.4461176"></polyline>
                            <path d="M13.5575195,1.19105882 C14.4010504,1.19105882 15.0883312,1.86666667 15.0883312,2.7014902 C15.0883312,3.536 14.4010504,4.21003922 13.5575195,4.21003922 C12.7138318,4.21003922 12.0282766,3.536 12.0282766,2.7014902 C12.0282766,1.86666667 12.7138318,1.19105882 13.5575195,1.19105882" id="Fill-8" fill="#004772"></path>
                            <path d="M18.619803,15.8139608 L18.617136,15.8037647 C18.0159811,17.7432157 16.5289382,19.350902 14.4990989,19.9758431 C11.2848336,20.9612549 7.90710193,19.1079216 6.87955362,15.8258824 L6.88441682,15.8246275 C6.59968397,14.9240784 6.50665555,13.945098 6.64627662,12.9438431 C6.95187419,10.7766275 8.27560743,9.02258824 10.0447162,8.12752941 L10.0331072,8.12752941 C10.1848079,8.05003922 10.3595695,8.01913725 10.5387238,8.04564706 C11.0148473,8.11623529 11.3409958,8.57160784 11.2733816,9.0614902 C11.2264752,9.38933333 11.0148473,9.64894118 10.7371739,9.76298039 L10.7090928,9.78352941 C9.51337173,10.4396863 8.6274839,11.6558431 8.41789541,13.1461961 C8.32235695,13.8373333 8.38542175,14.5110588 8.57163547,15.1364706 L8.57367488,15.1389804 C8.74184767,15.7253333 9.03316938,16.2393725 9.38284956,16.688 C9.40120424,16.7102745 9.41783327,16.7330196 9.43665858,16.7546667 C9.49015385,16.8207059 9.5458454,16.8821961 9.60200758,16.9446275 C9.66240546,17.0100392 9.72562713,17.0756078 9.79073134,17.1385098 C9.80516408,17.1537255 9.823205,17.1694118 9.83748086,17.184 C10.4596574,17.7584314 11.3526048,18.2078431 12.2403751,18.3421176 L12.2497878,18.3421176 L12.2474346,18.3402353 C12.8346275,18.4183529 13.4477052,18.3755294 14.0513702,18.1896471 C15.4453846,17.7607843 16.4823456,16.6773333 16.93933,15.3621961 L16.9531353,15.3300392 C17.0231027,15.0287059 17.2422607,14.7750588 17.5470739,14.6815686 C18.0068822,14.5403922 18.4894377,14.8105098 18.6241955,15.2867451 C18.6756514,15.4646275 18.6709451,15.6481569 18.619803,15.8139608" id="Fill-9" fill="#004772"></path>
                            <path d="M24.4470216,17.2829804 L22.7102296,18.2547451 C22.6961106,18.2619608 22.6799523,18.2619608 22.666147,18.2687059 C22.6498318,18.2746667 22.6358696,18.2768627 22.6195544,18.2825098 C22.5306048,18.3184314 22.4424396,18.332549 22.3517643,18.329098 C22.3440773,18.3281569 22.3371747,18.3275294 22.330429,18.3275294 C22.2792869,18.3232941 22.2276741,18.3218824 22.1787283,18.3068235 C21.9831019,18.2619608 21.803634,18.1472941 21.6823676,17.9675294 L19.2584517,14.3104314 L13.6853748,14.3104314 C13.6039553,14.3104314 13.5457537,14.3123137 13.4641773,14.3044706 C12.9212239,14.2495686 12.477731,13.7744314 12.477731,13.2233725 L12.477731,6.95043137 C12.477731,6.36172549 12.9627965,5.88643137 13.5575195,5.88643137 C14.1539682,5.88643137 14.6363668,6.36172549 14.6363668,6.95043137 L14.6363668,8.93239216 L17.9646821,8.93239216 C18.4426881,8.93239216 18.8300189,9.35937255 18.8300189,9.88658824 C18.8300189,10.414902 18.4426881,10.8412549 17.9646821,10.8412549 L14.6363668,10.8412549 L14.6363668,12.3664314 L19.4376059,12.3664314 C19.9371042,12.3957647 20.1187685,12.6933333 20.2165032,12.8384314 L22.7710981,16.6905098 L23.7801349,16.1254902 C24.1040872,15.9443137 24.5165184,16.0566275 24.7008496,16.3756863 C24.8850239,16.6958431 24.7706601,17.1022745 24.4470216,17.2829804" id="Fill-10" fill="#004772"></path>
                            <path d="M43.366147,12.6981961 L43.366147,4.58431373 C43.366147,4.51984314 43.4146222,4.46745098 43.4759613,4.46745098 L52.9030504,4.46745098 C52.9642327,4.46745098 53.0103547,4.51984314 53.0103547,4.58431373 L53.0103547,12.6981961 C53.0103547,12.7626667 52.9642327,12.8163137 52.9030504,12.8163137 L43.4759613,12.8163137 C43.4146222,12.8163137 43.366147,12.7626667 43.366147,12.6981961 L43.366147,12.6981961 Z M41.6315513,14.8362353 C41.6315513,14.9127843 41.6864585,14.9780392 41.7526609,14.9780392 L54.5513634,14.9780392 C54.617252,14.9780392 54.6715316,14.9127843 54.6715316,14.8362353 L54.6715316,2.78854902 C54.6715316,2.70933333 54.617252,2.64533333 54.5513634,2.64533333 L41.7526609,2.64533333 C41.6864585,2.64533333 41.6315513,2.70933333 41.6315513,2.78854902 L41.6315513,14.8362353 L41.6315513,14.8362353 Z M48.8082311,18.4622745 L47.489518,18.4622745 C47.4096673,18.4622745 47.3456612,18.5254902 47.3456612,18.6042353 L47.3456612,19.9237647 C47.3456612,20.0018824 47.4096673,20.0647843 47.489518,20.0647843 L48.8082311,20.0647843 C48.8882387,20.0647843 48.9516173,20.0018824 48.9516173,19.9237647 L48.9516173,18.6042353 C48.9516173,18.5254902 48.8882387,18.4622745 48.8082311,18.4622745 L48.8082311,18.4622745 Z M53.8085479,18.4622745 L52.4879523,18.4622745 C52.4099841,18.4622745 52.3466055,18.5254902 52.3466055,18.6042353 L52.3466055,19.9237647 C52.3466055,20.0018824 52.4099841,20.0647843 52.4879523,20.0647843 L53.8085479,20.0647843 C53.8865161,20.0647843 53.9502084,20.0018824 53.9502084,19.9237647 L53.9502084,18.6042353 C53.9502084,18.5254902 53.8865161,18.4622745 53.8085479,18.4622745 L53.8085479,18.4622745 Z M46.3085434,18.4622745 L44.9898302,18.4622745 C44.9098227,18.4622745 44.849111,18.5254902 44.849111,18.6042353 L44.849111,19.9237647 C44.849111,20.0018824 44.9098227,20.0647843 44.9898302,20.0647843 L46.3085434,20.0647843 C46.3891785,20.0647843 46.452557,20.0018824 46.452557,19.9237647 L46.452557,18.6042353 C46.452557,18.5254902 46.3891785,18.4622745 46.3085434,18.4622745 L46.3085434,18.4622745 Z M51.307762,18.4622745 L49.9884214,18.4622745 C49.910767,18.4622745 49.8472315,18.5254902 49.8472315,18.6042353 L49.8472315,19.9237647 C49.8472315,20.0018824 49.910767,20.0647843 49.9884214,20.0647843 L51.307762,20.0647843 C51.3869852,20.0647843 51.4511482,20.0018824 51.4511482,19.9237647 L51.4511482,18.6042353 C51.4511482,18.5254902 51.3869852,18.4622745 51.307762,18.4622745 L51.307762,18.4622745 Z M51.3098014,17.9877647 L52.6289852,17.9877647 C52.7071103,17.9877647 52.7698613,17.9239216 52.7698613,17.8448627 L52.7698613,16.5256471 C52.7698613,16.446902 52.7071103,16.3835294 52.6289852,16.3835294 L51.3098014,16.3835294 C51.2297939,16.3835294 51.1690822,16.446902 51.1690822,16.5256471 L51.1690822,17.8448627 C51.1690822,17.9239216 51.2297939,17.9877647 51.3098014,17.9877647 L51.3098014,17.9877647 Z M48.8104274,17.9877647 L50.1296112,17.9877647 C50.2089913,17.9877647 50.2708011,17.9239216 50.2708011,17.8448627 L50.2708011,16.5256471 C50.2708011,16.446902 50.2089913,16.3835294 50.1296112,16.3835294 L48.8104274,16.3835294 C48.7307336,16.3835294 48.6690807,16.446902 48.6690807,16.5256471 L48.6690807,17.8448627 C48.6690807,17.9239216 48.7307336,17.9877647 48.8104274,17.9877647 L48.8104274,17.9877647 Z M43.8121501,17.9877647 L45.1288238,17.9877647 C45.2107139,17.9877647 45.2745631,17.9239216 45.2745631,17.8448627 L45.2745631,16.5256471 C45.2745631,16.446902 45.2107139,16.3835294 45.1288238,16.3835294 L43.8121501,16.3835294 C43.7321425,16.3835294 43.6682933,16.446902 43.6682933,16.5256471 L43.6682933,17.8448627 C43.6682933,17.9239216 43.7321425,17.9877647 43.8121501,17.9877647 L43.8121501,17.9877647 Z M43.8097969,18.4622745 L42.49077,18.4622745 C42.4106055,18.4622745 42.3489526,18.5254902 42.3489526,18.6042353 L42.3489526,19.9237647 C42.3489526,20.0018824 42.4106055,20.0647843 42.49077,20.0647843 L43.8097969,20.0647843 C43.8888632,20.0647843 43.9536537,20.0018824 43.9536537,19.9237647 L43.9536537,18.6042353 C43.9536537,18.5254902 43.8888632,18.4622745 43.8097969,18.4622745 L43.8097969,18.4622745 Z M46.3113672,17.9877647 L47.6310216,17.9877647 C47.7078916,17.9877647 47.7714271,17.9239216 47.7714271,17.8448627 L47.7714271,16.5256471 C47.7714271,16.446902 47.7078916,16.3835294 47.6310216,16.3835294 L46.3113672,16.3835294 C46.2315165,16.3835294 46.1671967,16.446902 46.1671967,16.5256471 L46.1671967,17.8448627 C46.1671967,17.9239216 46.2315165,17.9877647 46.3113672,17.9877647 L46.3113672,17.9877647 Z M54.9978371,20.7061961 C54.9978371,20.7960784 54.9253596,20.8690196 54.8359394,20.8690196 L41.4702812,20.8690196 C41.3811747,20.8690196 41.3061872,20.7960784 41.3061872,20.7061961 L41.3061872,15.8272941 C41.3061872,15.7374118 41.3811747,15.6646275 41.4702812,15.6646275 L54.8359394,15.6646275 C54.9253596,15.6646275 54.9978371,15.7374118 54.9978371,15.8272941 L54.9978371,20.7061961 L54.9978371,20.7061961 Z" id="Fill-11" fill="#004772"></path>
                            <polyline id="Fill-12" fill="#FFFFFF" points="60.7651285 23.7824314 60.7651285 22.3587451 60.2565313 22.3587451 60.2565313 22.068549 61.6185426 22.068549 61.6185426 22.3587451 61.1112005 22.3587451 61.1112005 23.7824314 60.7651285 23.7824314"></polyline>
                            <polygon id="Stroke-13" stroke="#FFFFFF" points="60.7651285 23.7824314 60.7651285 22.3587451 60.2565313 22.3587451 60.2565313 22.068549 61.6185426 22.068549 61.6185426 22.3587451 61.1112005 22.3587451 61.1112005 23.7824314"></polygon>
                            <polyline id="Fill-15" fill="#FFFFFF" points="61.8373869 23.7824314 61.8373869 22.068549 62.3549261 22.068549 62.6660144 23.2376471 62.9734945 22.068549 63.491975 22.068549 63.491975 23.7824314 63.1716309 23.7824314 63.1711603 22.4334118 62.830579 23.7824314 62.497371 23.7824314 62.1585153 22.4334118 62.1578878 23.7824314 61.8373869 23.7824314"></polyline>
                            <polygon id="Stroke-16" stroke="#FFFFFF" points="61.8373869 23.7824314 61.8373869 22.068549 62.3549261 22.068549 62.6660144 23.2376471 62.9734945 22.068549 63.491975 22.068549 63.491975 23.7824314 63.1716309 23.7824314 63.1711603 22.4334118 62.830579 23.7824314 62.497371 23.7824314 62.1585153 22.4334118 62.1578878 23.7824314"></polygon>
                            <polyline id="Fill-18" fill="#004772" points="60.7795612 23.8018824 60.7795612 22.3781961 60.2708071 22.3781961 60.2708071 22.088 61.6329754 22.088 61.6329754 22.3781961 61.1256332 22.3781961 61.1256332 23.8018824 60.7795612 23.8018824"></polyline>
                            <polyline id="Fill-19" fill="#004772" points="61.8518196 23.8018824 61.8518196 22.088 62.369202 22.088 62.6804471 23.257098 62.9879272 22.088 63.5062509 22.088 63.5062509 23.8018824 63.1859068 23.8018824 63.185593 22.4528627 62.8450117 23.8018824 62.5118037 23.8018824 62.1727912 22.4528627 62.1723206 23.8018824 61.8518196 23.8018824"></polyline>
                        </g>
                    </g>
                </g>
            </g>
        </g>
    </g>
</svg>