<?xml version="1.0" encoding="UTF-8" standalone="no"?>
<svg width="415px" height="82px" viewBox="0 0 415 82" version="1.1" xmlns="http://www.w3.org/2000/svg" xmlns:xlink="http://www.w3.org/1999/xlink">
    <!-- Generator: Sketch 40.3 (33839) - http://www.bohemiancoding.com/sketch -->
    <title>Qantas logo no txt</title>
    <desc>Created with Sketch.</desc>
    <defs>
        <linearGradient x1="21.9270121%" y1="-2.70265214%" x2="121.441913%" y2="91.1244622%" id="linearGradient-1">
            <stop stop-color="#FFFFFF" offset="0%"></stop>
            <stop stop-color="#F3F3F3" offset="49.7237569%"></stop>
            <stop stop-color="#EDEDED" offset="61.5819209%"></stop>
            <stop stop-color="#DDDDDD" offset="72.3756906%"></stop>
            <stop stop-color="#ACACAC" offset="100%"></stop>
        </linearGradient>
        <linearGradient x1="24.4656576%" y1="-0.309103308%" x2="119.957583%" y2="89.7249688%" id="linearGradient-2">
            <stop stop-color="#FFFFFF" offset="0%"></stop>
            <stop stop-color="#F2F2F2" offset="11.4878506%"></stop>
            <stop stop-color="#E2E2E2" offset="25.3985337%"></stop>
            <stop stop-color="#E5E5E5" offset="42.8487296%"></stop>
            <stop stop-color="#BFC0BF" offset="54.6756689%"></stop>
            <stop stop-color="#BBBCBB" offset="55.969686%"></stop>
            <stop stop-color="#BABBBA" offset="57.263703%"></stop>
            <stop stop-color="#B3B3B3" offset="66.3218222%"></stop>
            <stop stop-color="#B4B4B4" offset="74.0668904%"></stop>
            <stop stop-color="#B1B1B1" offset="100%"></stop>
        </linearGradient>
        <radialGradient cx="22.5559014%" cy="3.06122449%" fx="22.5559014%" fy="3.06122449%" r="75.4202641%" id="radialGradient-3">
            <stop stop-color="#A7A7A7" offset="0%"></stop>
            <stop stop-color="#D0D0D0" offset="23.1055769%"></stop>
            <stop stop-color="#D9D9D9" offset="45.608222%"></stop>
            <stop stop-color="#E5E5E5" offset="70.9236978%"></stop>
            <stop stop-color="#F2F2F2" offset="70.9236978%"></stop>
            <stop stop-color="#FFFFFF" offset="100%"></stop>
        </radialGradient>
        <linearGradient x1="29.6631678%" y1="4.32272712%" x2="70.3368322%" y2="95.6772729%" id="linearGradient-4">
            <stop stop-color="#FF0401" offset="0%"></stop>
            <stop stop-color="#FF0401" offset="12.7192982%"></stop>
            <stop stop-color="#FF0401" offset="23.245614%"></stop>
            <stop stop-color="#FE0401" offset="35.9649123%"></stop>
            <stop stop-color="#FB0401" offset="51.3157895%"></stop>
            <stop stop-color="#DE0301" offset="83.3333333%"></stop>
            <stop stop-color="#DE0301" offset="88.5964912%"></stop>
            <stop stop-color="#DE0301" offset="95.1754386%"></stop>
            <stop stop-color="#DE0301" offset="100%"></stop>
        </linearGradient>
    </defs>
    <g id="Logo" stroke="none" stroke-width="1" fill="none" fill-rule="evenodd">
        <g id="Qantas-Masterbrand-Logo" transform="translate(-312.000000, -316.000000)">
            <g id="Qantas-logo-no-txt" transform="translate(312.000000, 316.000000)">
                <path d="M414.537348,56.2133134 C414.537348,60.6015722 411.10916,63.8582791 405.159195,65.6516118 C401.494061,66.7365594 396.591545,67.3498717 391.068458,67.3498717 C382.404902,67.3498717 373.169667,66.2183198 367.219702,64.3299144 L366.315172,64.0465604 L368.742923,56.3549904 C375.693325,58.573354 383.119499,59.4700203 389.831075,59.4700203 C400.828357,59.4700203 403.541947,58.1949273 403.541947,56.8266257 C403.541947,56.2599176 403.160202,55.8367508 402.304565,55.5533968 C401.208222,55.1749701 398.161779,54.5616578 389.165371,53.0982834 C379.215539,51.4950963 374.739902,50.6916385 371.456514,49.1816599 C368.171245,47.6716813 366.172252,45.2650364 366.172252,41.7249754 C366.172252,39.0368406 367.505541,36.8650813 369.647453,35.1668214 C373.455506,32.2400727 379.97715,31.0619166 387.070472,31.0619166 C396.2098,31.0619166 403.874799,31.8150417 412.395436,33.8917283 L413.157047,34.1284781 L411.10916,41.6317668 C401.589967,39.6035487 396.305706,39.0368406 389.069465,38.9417679 C383.975136,38.8951636 380.452922,39.2717262 378.596848,39.8384342 C377.549399,40.1683925 377.12064,40.6400278 377.12064,41.2067358 C377.12064,41.7249754 377.453492,42.1984749 378.500942,42.5284332 C379.644298,42.9049957 381.500371,43.3300267 391.260271,44.8884738 C401.826913,46.5867337 405.302114,47.2951187 408.205637,48.4266706 C412.15661,49.9366492 414.537348,52.7217209 414.537348,56.2133134 L414.537348,56.2133134 Z M327.709975,52.5781797 L335.749198,38.3638749 C336.025635,37.8717337 336.738352,37.8717337 337.016669,38.3638749 L345.054011,52.5781797 L327.709975,52.5781797 Z M338.741106,31.4850834 L334.261707,31.4850834 C330.417924,31.4850834 328.338068,33.3753529 326.89947,35.826738 L308.677231,66.8782364 L319.625619,66.8782364 L323.307677,60.3648225 L349.456309,60.3648225 L353.138367,66.8782364 L364.325581,66.8782364 L346.101461,35.826738 C344.657222,33.3716246 342.51907,31.4850834 338.741106,31.4850834 L338.741106,31.4850834 Z M174.282101,52.5781797 L182.319444,38.3638749 C182.595881,37.8717337 183.310478,37.8717337 183.586915,38.3638749 L191.624258,52.5781797 L174.282101,52.5781797 Z M185.311352,31.4850834 L180.831953,31.4850834 C176.99005,31.4850834 174.910195,33.3753529 173.471597,35.826738 L155.247477,66.8782364 L166.195865,66.8782364 L169.877923,60.3648225 L196.028436,60.3648225 L199.710494,66.8782364 L210.895828,66.8782364 L192.673588,35.826738 C191.227468,33.3716246 189.091197,31.4850834 185.311352,31.4850834 L185.311352,31.4850834 Z M316.626189,39.4600075 L296.824313,39.4600075 L296.824313,66.8782364 L287.16032,66.8782364 L287.16032,39.4600075 L267.356563,39.4600075 L267.356563,31.4850834 L316.626189,31.4850834 L316.626189,39.4600075 Z M252.694148,31.4850834 L262.35814,31.4850834 L262.35814,66.8782364 L252.694148,66.8782364 L224.320861,43.4232353 L224.320861,66.8782364 L214.658748,66.8782364 L214.658748,31.4850834 L220.70462,31.4850834 C223.798076,31.4850834 225.36831,32.286677 227.130358,33.7966556 L252.694148,54.891616 L252.694148,31.4850834 Z M123.827747,58.148323 C114.784326,58.148323 107.166339,53.7115957 107.166339,47.625077 C107.166339,41.5366941 114.784326,37.101831 123.827747,37.101831 C132.873049,37.101831 140.489155,41.5366941 140.489155,47.625077 C140.489155,53.7115957 132.873049,58.148323 123.827747,58.148323 L123.827747,58.148323 Z M151.39053,47.200046 C151.39053,36.7700086 140.25221,28.3700535 123.827747,28.3700535 C107.405165,28.3700535 96.2649644,36.7234043 96.2649644,47.625077 C96.2649644,58.3366043 106.786474,66.8782364 123.351976,66.8782364 L145.536471,66.8782364 C149.438551,66.8782364 151.202478,65.3682578 152.676806,62.8665401 L155.003009,58.9033123 L145.299526,58.9033123 C149.282467,55.7043947 151.39053,51.8548813 151.39053,47.200046 L151.39053,47.200046 Z" id="Page-1" fill="#242527"></path>
                <g id="Qantas-Flag-Logo">
                    <g id="Group">
                        <path d="M5.84424213,15.0886872 C7.9668411,18.6968882 10.9865955,21.6006293 14.2507382,24.1648045 C25.2670348,32.8187503 40.1369142,37.8163803 42.2052165,56.7472067 C42.3142769,57.7578936 43.0665117,58.6852593 44.0765256,58.8372905 C49.0584364,59.6177043 54.0971196,60.8195839 58.9030512,62.4734637 C64.4095823,64.3684429 69.4812158,66.7198572 74.3053642,69.5811802 C76.0076099,70.5908246 77.7044179,71.6511379 79.3435039,72.7950419 C80.8179687,73.8240582 82.2988584,74.8918339 83.7266855,76.0375349 L83.9363887,76.1764721 C84.0102118,76.2395648 84.1043976,76.2740947 84.2017101,76.273743 C84.3718541,76.2770239 84.5270864,76.1775582 84.5944916,76.0220666 C84.6618968,75.8665751 84.6280795,75.6859582 84.5089244,75.5650551 C82.1547935,73.0951439 79.6333679,70.8253254 77.0403543,68.6936103 C75.3220112,67.2809613 73.5091905,65.9381318 71.6927288,64.6709148 C70.4477787,63.802401 69.182399,62.986236 67.8948034,62.1871508 C65.9281477,60.9666391 63.8719686,59.841166 61.7963829,58.7800279 C60.1729164,57.9500347 58.4943622,57.1926135 56.8086245,56.4608939 C56.2675018,56.2260114 54.0365718,55.3304739 53.4690576,55.1009078 C52.8915004,54.8672792 51.734498,54.4065992 51.734498,54.4065992 C51.476357,54.3037626 51.2068981,54.2054773 50.9499877,54.0701816 C50.5617825,53.8657425 50.194571,53.6013907 49.8775837,53.3042947 C49.219694,52.6876885 48.7723337,51.8920786 48.5460753,51.049581 C48.4438145,50.668802 48.3914918,50.2749042 48.4021284,49.8828561 C48.4181812,49.2804043 48.5305921,48.7272445 48.7619956,48.2365573 C49.0547267,47.6158258 49.4860765,47.0669408 50.0575172,46.5974162 C50.7917817,45.9941073 51.7156998,45.4919651 52.7709154,45.0799581 C53.8806168,44.6466772 55.1121541,44.2882799 56.398376,43.9919693 C57.8506049,43.6574151 59.410062,43.3537974 60.8391363,43.0900838 C62.3079703,42.8190331 63.6564209,42.5344539 64.804872,42.2239874 C65.3916365,42.0653645 65.8928988,41.8864064 66.337906,41.6943087 C67.0629776,41.3813145 67.6016736,41.0186119 67.8421506,40.5418994 L68.1804257,39.8833799 C67.4547333,39.2662608 66.6817582,38.700202 65.9060655,38.1511872 C63.8435744,36.6914103 61.5933962,35.4970153 59.255721,34.5436453 C58.052591,34.0529748 56.8305002,33.6275512 55.5706816,33.2838687 C55.565305,33.360456 55.5422937,33.4583103 55.5418922,33.5343925 C55.5409429,33.7142775 55.572155,33.9114484 55.599471,34.0855447 C55.6463709,34.3844575 55.7696643,34.6649176 55.8873647,34.9373254 C56.0250059,35.2558849 56.140917,35.5616691 56.3695866,35.8463687 C57.4029438,37.5277654 55.2215044,40.2040569 52.0655758,37.3137221 L51.734498,37.0202514 C51.1118971,36.4524842 50.4922516,35.9232862 49.8775837,35.4025838 C46.5170735,32.5558017 43.2812213,30.3695193 40.1683686,28.6098115 C39.2543987,28.0931407 38.3467236,27.6008839 37.4549705,27.1496159 C33.6093948,25.2035782 29.9728247,23.8816291 26.5725886,22.7332402 C15.3522875,18.9437184 6.64752216,17.217649 1.00762795,2.6627095 L5.84424213,15.0886872 Z" id="Shape" fill="#FFFFFF"></path>
                        <path d="M6.08227284,15.3439969 C15.3575095,31.1016074 39.710236,32.7661437 42.3463559,57.2625698 C39.6962883,25.9970293 25.8880413,30.6716021 11.0476627,16.4398166 C7.21203851,13.7349451 3.97616648,9.76780022 1.38188976,3.06804154 L6.08227284,15.3439969 Z" id="Shape" fill="url(#linearGradient-1)"></path>
                        <path d="M83.1437008,76.0446927 C69.5551181,61.3854749 54.8276836,58.6416961 49.3841421,58.6416961 C48.193784,58.6064669 47.0056068,58.7643602 45.8663102,59.1091701 C60.5072155,61.9062152 71.5611421,66.7802351 83.1437008,76.0446927 Z" id="Shape" fill="url(#linearGradient-2)"></path>
                        <path d="M54.8149606,38.1256934 C56.3862407,38.3916768 59.1499105,39.0233871 61.1000808,38.6133295 C59.0427693,38.5907564 57.1479725,37.4971359 56.1076449,35.7318436 C56.3624841,36.1843772 56.3552178,36.737742 56.088583,37.1835031 C55.8219482,37.6292642 55.3364502,37.8997046 54.8149606,37.892958 L54.8149606,38.1256934 Z" id="SVGID-3" fill="url(#radialGradient-3)"></path>
                        <path d="M116.714218,81.9067156 L116.504698,82 L31.6460928,82 L5.79187896,15.0284899 C15.1150652,30.7479872 39.5819798,32.4061461 42.2438364,56.848427 C42.3546675,57.8538863 43.1343067,58.6593855 44.1470734,58.815958 C58.247461,60.9909947 71.9809596,66.7219238 83.923963,76.1747501 C84.0023091,76.2370018 84.084477,76.2671844 84.483851,76.1502267 C84.6520085,75.9917678 84.659652,75.7257833 84.4972272,75.5578923 C76.2345797,66.9841355 66.1374868,60.1345622 54.8040543,55.6298028 L51.3549149,54.2602655 C49.5816177,53.5547462 48.3490998,51.8173579 48.4026044,49.8177578 C48.5956034,42.5154448 66.0897148,44.00194 67.863012,40.4913214 L68.1687529,39.8876685 C64.566743,36.8486538 60.2863706,34.5623186 55.5722283,33.2852156 C55.5301889,33.4606522 55.415536,34.3114254 56.376709,35.854513 C57.4181389,37.5296496 55.2340024,40.1970406 52.0542972,37.3202575 L51.7867739,37.07691 C28.1510923,15.6962809 10.4276752,26.7827426 1.06436047,2.78376927 L0,0.0277167584 L14.2780995,0.0277167584 C27.1383256,0.0277167584 39.4711487,5.36249876 48.5650293,14.3399484 L116.714218,81.9067156 Z" id="Combined-Shape" fill="url(#linearGradient-4)"></path>
                    </g>
                </g>
            </g>
        </g>
    </g>
</svg>